<svg width="35" height="35" viewBox="0 0 35 35" fill="none" xmlns="http://www.w3.org/2000/svg">
<mask id="mask0_2_29" style="mask-type:alpha" maskUnits="userSpaceOnUse" x="0" y="0" width="35" height="35">
<rect width="35" height="35" fill="#D9D9D9"/>
</mask>
<g mask="url(#mask0_2_29)">
<path d="M7.29167 30.625C6.48958 30.625 5.80295 30.3394 5.23177 29.7682C4.66059 29.1971 4.375 28.5104 4.375 27.7083V9.47917C4.375 9.11458 4.43576 8.78646 4.55729 8.49479C4.67882 8.20313 4.83681 7.92361 5.03125 7.65625L7.07292 5.17708C7.26736 4.90972 7.51042 4.7092 7.80208 4.57552C8.09375 4.44184 8.40972 4.375 8.75 4.375H26.25C26.5903 4.375 26.9063 4.44184 27.1979 4.57552C27.4896 4.7092 27.7326 4.90972 27.9271 5.17708L29.9688 7.65625C30.1632 7.92361 30.3212 8.20313 30.4427 8.49479C30.5642 8.78646 30.625 9.11458 30.625 9.47917V27.7083C30.625 28.5104 30.3394 29.1971 29.7682 29.7682C29.1971 30.3394 28.5104 30.625 27.7083 30.625H7.29167ZM7.875 8.75H27.125L25.8854 7.29167H9.11458L7.875 8.75ZM7.29167 11.6667V27.7083H27.7083V11.6667H7.29167ZM17.5 26.25L23.3333 20.4167L21.2917 18.375L18.9583 20.7083V14.5833H16.0417V20.7083L13.7083 18.375L11.6667 20.4167L17.5 26.25Z" fill="#1C1B1F"/>
</g>
</svg>
