<svg width="35" height="35" viewBox="0 0 35 35" fill="none" xmlns="http://www.w3.org/2000/svg">
<mask id="mask0_2_17" style="mask-type:alpha" maskUnits="userSpaceOnUse" x="0" y="0" width="35" height="35">
<rect width="35" height="35" fill="#D9D9D9"/>
</mask>
<g mask="url(#mask0_2_17)">
<path d="M17.5 33.9791L12.6146 29.1666H5.83334V22.3853L1.02084 17.4999L5.83334 12.6145V5.83325H12.6146L17.5 1.02075L22.3854 5.83325H29.1667V12.6145L33.9792 17.4999L29.1667 22.3853V29.1666H22.3854L17.5 33.9791ZM17.5 29.8958L21.1458 26.2499H26.25V21.1458L29.8958 17.4999L26.25 13.8541V8.74992H21.1458L17.5 5.10408L13.8542 8.74992H8.75001V13.8541L5.10418 17.4999L8.75001 21.1458V26.2499H13.8542L17.5 29.8958ZM13.2344 23.6978L17.5 21.1093L21.7656 23.6978L20.6354 18.8489L24.4271 15.5676L19.4323 15.1666L17.5 10.5728L15.5677 15.1666L10.5729 15.5676L14.3646 18.8489L13.2344 23.6978Z" fill="#1C1B1F"/>
</g>
</svg>
