<svg width="37" height="47" viewBox="0 0 37 47" fill="none" xmlns="http://www.w3.org/2000/svg">
<path d="M18.5 37.1354C16.034 37.1354 13.66 37.5842 11.3781 38.4818C9.09616 39.3793 6.96144 40.7066 4.97394 42.4636V42.9792H32.026V42.4636C30.0385 40.7066 27.9038 39.3793 25.6219 38.4818C23.3399 37.5842 20.966 37.1354 18.5 37.1354ZM18.5 33.6979C21.2236 33.6979 23.7908 34.1658 26.2015 35.1016C28.6123 36.0373 30.8298 37.3073 32.8541 38.9115V4.02084H4.14581V38.9115C6.17012 37.3073 8.38765 36.0373 10.7984 35.1016C13.2092 34.1658 15.7764 33.6979 18.5 33.6979ZM18.6104 25.7344C17.4142 25.7344 16.3975 25.2999 15.5601 24.431C14.7228 23.5621 14.3041 22.507 14.3041 21.2656C14.3041 20.0243 14.7228 18.9692 15.5601 18.1003C16.3975 17.2313 17.4142 16.7969 18.6104 16.7969C19.8066 16.7969 20.8233 17.2313 21.6607 18.1003C22.498 18.9692 22.9166 20.0243 22.9166 21.2656C22.9166 22.507 22.498 23.5621 21.6607 24.431C20.8233 25.2999 19.8066 25.7344 18.6104 25.7344ZM4.14581 46.4167C3.26248 46.4167 2.48956 46.0729 1.82706 45.3854C1.16456 44.6979 0.833313 43.8958 0.833313 42.9792V4.02084C0.833313 3.10418 1.16456 2.30209 1.82706 1.61459C2.48956 0.927094 3.26248 0.583344 4.14581 0.583344H32.8541C33.7375 0.583344 34.5104 0.927094 35.1729 1.61459C35.8354 2.30209 36.1666 3.10418 36.1666 4.02084V42.9792C36.1666 43.8958 35.8354 44.6979 35.1729 45.3854C34.5104 46.0729 33.7375 46.4167 32.8541 46.4167H4.14581ZM18.6104 29.1719C20.7451 29.1719 22.5486 28.408 24.0208 26.8802C25.493 25.3524 26.2291 23.4809 26.2291 21.2656C26.2291 19.0504 25.493 17.1788 24.0208 15.6511C22.5486 14.1233 20.7451 13.3594 18.6104 13.3594C16.4757 13.3594 14.6722 14.1233 13.2 15.6511C11.7278 17.1788 10.9916 19.0504 10.9916 21.2656C10.9916 23.4809 11.7278 25.3524 13.2 26.8802C14.6722 28.408 16.4757 29.1719 18.6104 29.1719Z" fill="#718384"/>
</svg>
