<svg width="90" height="86" viewBox="0 0 90 86" fill="none" xmlns="http://www.w3.org/2000/svg">
<path d="M59.9062 79.25H16.875C15.375 79.25 14.0625 78.6625 12.9375 77.4875C11.8125 76.3125 11.25 74.9417 11.25 73.375V14.625C11.25 13.0583 11.8125 11.6875 12.9375 10.5125C14.0625 9.3375 15.375 8.75 16.875 8.75H73.125C74.625 8.75 75.9375 9.3375 77.0625 10.5125C78.1875 11.6875 78.75 13.0583 78.75 14.625V59.5688L59.9062 79.25ZM57.0938 73.375V65.2479C57.0938 62.9632 57.9219 60.9559 59.5781 59.226C61.2344 57.4962 63.1562 56.6313 65.3438 56.6313H73.125V14.625H16.875V73.375H57.0938ZM42.1875 59.5688H47.8125V34.3063H59.9062V28.4313H30.0938V34.3063H42.1875V59.5688Z" fill="#718384"/>
</svg>
